<?xml version="1.0" encoding="utf-8"?>
<!-- Generator: Adobe Illustrator 21.0.2, SVG Export Plug-In . SVG Version: 6.00 Build 0)  -->
<svg version="1.1" id="Layer_1" xmlns="http://www.w3.org/2000/svg" xmlns:xlink="http://www.w3.org/1999/xlink" x="0px" y="0px"
	 viewBox="0 0 595.3 841.9" style="enable-background:new 0 0 595.3 841.9;" xml:space="preserve" width="2.5em" height="2.5em">
	<g>
		<path class="center" d="M84.1,710.5c-3.7,0-7.4-0.9-10.7-2.8c-6.7-3.8-10.9-11-10.8-18.8l1.9-536.6c0-7.7,4.2-14.9,11-18.7
			c3.3-1.8,6.9-2.8,10.5-2.8c3.9,0,7.7,1,11.1,3.1l446.1,269.9c6.5,3.9,10.4,10.9,10.4,18.5c0,7.6-4,14.5-10.5,18.4l-448,266.8
			C91.7,709.5,87.9,710.5,84.1,710.5z"/>
		<path class="center" d="M86,152.4l446.1,269.9L84.1,689L86,152.4 M86,109.4c-7.2,0-14.5,1.8-21,5.5c-13.5,7.6-21.9,21.8-22,37.3
			l-1.9,536.6c-0.1,15.5,8.2,29.8,21.7,37.5c6.6,3.8,14,5.7,21.3,5.7c7.6,0,15.2-2,22-6.1l448-266.8c13-7.7,20.9-21.7,21-36.8
			c0.1-15.1-7.8-29.1-20.7-36.9L108.3,115.6C101.5,111.5,93.8,109.4,86,109.4L86,109.4z"/>
	</g>
	<g>
		<path class="border" d="M86,152.4l446.1,269.9L84.1,689L86,152.4 M86,109.4c-7.2,0-14.5,1.8-21,5.5c-13.5,7.6-21.9,21.8-22,37.3
			l-1.9,536.6c-0.1,15.5,8.2,29.8,21.7,37.5c6.6,3.8,14,5.7,21.3,5.7c7.6,0,15.2-2,22-6.1l448-266.8c13-7.7,20.9-21.7,21-36.8
			c0.1-15.1-7.8-29.1-20.7-36.9L108.3,115.6C101.5,111.5,93.8,109.4,86,109.4L86,109.4z"/>
	</g>
</svg>